<?xml version="1.0" encoding="UTF-8" standalone="no"?><!DOCTYPE svg PUBLIC "-//W3C//DTD SVG 1.1//EN" "http://www.w3.org/Graphics/SVG/1.1/DTD/svg11.dtd"><svg width="100%" height="100%" viewBox="0 0 120 123" version="1.1" xmlns="http://www.w3.org/2000/svg" xmlns:xlink="http://www.w3.org/1999/xlink" xml:space="preserve" xmlns:serif="http://www.serif.com/" style="fill-rule:evenodd;clip-rule:evenodd;stroke-linejoin:round;stroke-miterlimit:2;"><path d="M55.44,47.52c8.36,25.48 4.56,50.1 -3.58,75.36l16.43,0c6.2,-40.12 0.92,-57.54 -5.27,-73.21c3.154,2.042 6.037,4.475 8.58,7.24l7.27,-1.15l-4.1,4.81c0.967,1.2 1.927,2.477 2.88,3.83l6.77,-1.07l-4.19,4.92c0.73,1.14 1.45,2.33 2.16,3.56l6.21,-1l-4.07,4.78c0.85,1.58 1.69,3.22 2.54,4.91l5.21,-0.82l-3.59,4.21c1.88,4 3.74,8.333 5.58,13c13.67,-25.47 5,-44.21 -27.48,-56.37c3.689,-1.155 7.517,-1.808 11.38,-1.94l2.83,-3.86l0.31,3.88c2.221,0.1 4.431,0.371 6.61,0.81l2.36,-3.26l0.29,3.85c1.876,0.496 3.722,1.097 5.53,1.8l2.42,-3.32l0.36,4.5c1.969,0.896 3.889,1.898 5.75,3l2.77,-3.8l0.46,5.78c3.954,2.6 7.714,5.484 11.25,8.63c-8.74,-33 -33.67,-40.92 -55.95,-22.11c3.03,-23.61 -6.69,-29.28 -19.73,-34.48c1.64,2.49 3.16,5 4.51,7.57l3.55,0.43l-2.49,1.67c1.081,2.236 2.003,4.545 2.76,6.91l3.17,0.34l-2.57,1.77c0.997,3.778 1.385,7.69 1.15,11.59c-20.11,-18.46 -36.9,-11.63 -52.35,4.64c3.07,-0.72 6.16,-1.35 9.25,-1.82l1.37,-3.42l1.05,3.08c2.379,-0.304 4.772,-0.484 7.17,-0.54l1.37,-3.42l1.16,3.41c1.991,0.044 3.978,0.204 5.95,0.48l1.45,-3.69l1.43,4.2c2.045,0.441 4.052,1.047 6,1.81l1.85,-4.62l2.22,6.52c1,0.53 1.94,1.12 2.9,1.76c-23.27,-2.93 -36.33,10.18 -44.33,27.39c3.256,-3.031 6.725,-5.825 10.38,-8.36l-0.3,-1.88l1.37,1.18c2.189,-1.447 4.49,-2.718 6.88,-3.8l-0.47,-3l2.53,2.16c2.652,-1.021 5.425,-1.693 8.25,-2c-1.149,2.091 -2.152,4.26 -3,6.49l0.16,0.13l-0.22,0c-6,15.86 -1.74,30.39 4.64,46.17c0.54,-6.33 1.22,-12.39 2.21,-18l-2.48,-2l2.79,-0.15c0.48,-2.5 1.033,-4.917 1.66,-7.25l-2.58,-2.06l3.18,-0.15c0.63,-2.07 1.33,-4.06 2.11,-6l-2.61,-2.1l3.58,-0.11c0.967,-2.086 2.097,-4.092 3.38,-6l-2.92,-2.33l4.78,-0.15c3.224,-4.026 7.358,-7.231 12.06,-9.35l0.06,0.02Z" style="fill:#00a884;"/></svg>